<?xml version="1.0" standalone="no"?>
<!DOCTYPE svg PUBLIC "-//W3C//DTD SVG 20010904//EN"
 "http://www.w3.org/TR/2001/REC-SVG-20010904/DTD/svg10.dtd">
<svg version="1.0" xmlns="http://www.w3.org/2000/svg"
 width="208.000000pt" height="208.000000pt" viewBox="0 0 208.000000 208.000000"
 preserveAspectRatio="xMidYMid meet">
<metadata>
Created by potrace 1.11, written by Peter Selinger 2001-2013
</metadata>
<g transform="translate(0.000000,208.000000) scale(0.100000,-0.100000)"
fill="#000000" stroke="none">
<path d="M420 2020 c-74 -4 -145 -10 -157 -14 -24 -8 -44 -55 -41 -101 1 -16
-4 -58 -11 -93 -6 -34 -9 -66 -6 -71 5 -9 6 -353 1 -441 -3 -38 -5 -409 -4
-535 0 -22 0 -82 -1 -134 0 -52 1 -104 4 -115 2 -12 7 -105 9 -207 3 -102 8
-193 11 -201 10 -25 55 -43 104 -43 25 1 100 2 167 4 77 3 138 -1 171 -9 43
-11 60 -11 114 3 35 9 70 12 78 8 28 -14 543 -7 570 8 17 9 30 10 46 3 14 -7
37 -7 61 -2 21 5 45 5 53 1 32 -17 93 -22 181 -15 77 6 93 10 102 27 6 12 12
93 14 186 2 91 5 204 8 251 3 47 2 93 0 103 -7 22 -41 22 -48 -1 -3 -9 -4
-115 -4 -234 1 -154 -2 -220 -10 -231 -7 -8 -43 -17 -90 -22 -72 -7 -99 -8
-197 -5 -22 0 -53 1 -70 1 -16 0 -52 2 -80 5 -27 3 -152 7 -276 8 -124 2 -248
9 -276 15 -37 7 -60 7 -83 0 -22 -8 -38 -8 -58 0 -19 8 -36 9 -54 2 -14 -5
-83 -10 -154 -11 -176 -2 -180 -2 -192 12 -6 8 -13 133 -17 328 -3 173 -7 326
-7 340 0 14 2 205 4 425 2 220 1 450 -2 510 -5 72 -3 116 4 128 10 16 29 19
181 22 94 2 204 9 245 15 54 9 150 10 350 4 151 -4 379 -6 506 -4 291 3 274
13 274 -160 0 -66 -4 -120 -8 -120 -11 0 -32 90 -32 134 0 18 -6 41 -14 52
-17 22 0 21 -395 30 -217 5 -292 3 -322 -6 -30 -10 -41 -10 -53 -1 -18 15
-419 16 -481 1 -22 -5 -62 -10 -88 -10 -54 0 -82 -11 -97 -40 -21 -39 -29
-420 -20 -920 3 -162 3 -307 -1 -322 -4 -15 -3 -92 3 -170 14 -207 15 -207
280 -208 451 -2 961 3 1053 10 81 7 103 12 116 29 19 23 28 117 33 339 2 84 7
156 11 160 3 4 14 -4 24 -17 12 -15 24 -22 35 -18 14 5 15 24 10 149 -7 200
-14 288 -24 288 -13 0 -19 -47 -19 -140 0 -211 -3 -240 -22 -240 -5 0 -9 55
-9 128 0 70 0 255 -1 412 -1 347 -2 337 12 323 6 -6 11 -78 13 -179 3 -160 13
-224 35 -224 17 0 20 54 17 385 -3 392 -3 395 -94 395 -24 0 -69 7 -100 16
-49 15 -85 16 -262 9 -113 -4 -225 -7 -250 -5 -49 3 -141 4 -180 1 -14 0 -122
1 -240 3 -118 2 -276 0 -350 -4z m384 -228 c7 -12 -6 -26 -36 -39 -36 -16 -35
-29 1 -48 16 -8 32 -24 36 -34 7 -24 -13 -97 -32 -112 -25 -21 -13 -29 42 -29
56 0 67 8 40 30 -23 19 -22 188 2 197 11 4 22 -1 31 -15 19 -28 59 -28 81 0
12 14 24 19 35 15 14 -6 16 -20 14 -99 l-3 -92 -34 -23 c-35 -24 -65 -69 -51
-78 4 -2 8 -27 8 -55 l0 -50 -37 0 c-36 0 -81 -22 -81 -40 0 -6 17 -21 39 -35
33 -22 42 -24 63 -14 38 17 63 -2 88 -68 24 -64 24 -128 0 -128 -9 0 -22 22
-35 60 -36 110 -57 112 -48 5 5 -60 3 -70 -11 -76 -25 -10 -39 10 -46 63 -3
25 -9 48 -15 50 -5 1 -48 -25 -94 -58 -77 -55 -119 -69 -109 -36 4 11 62 58
153 124 57 41 16 34 -64 -11 -44 -25 -87 -46 -96 -46 -29 0 -15 29 31 60 25
18 43 34 40 37 -3 3 -37 -3 -76 -13 -67 -17 -71 -17 -88 0 -16 16 -16 18 2 32
11 8 30 14 42 14 13 0 35 5 49 10 26 10 27 11 11 35 -36 55 -3 177 54 198 21
8 28 16 24 27 -9 21 -8 30 7 67 18 43 2 55 -25 19 -65 -90 -142 -154 -171
-142 -24 9 -17 40 13 58 48 29 105 95 98 113 -5 15 -11 12 -42 -15 -29 -25
-39 -29 -50 -19 -13 10 -12 15 1 35 8 13 22 35 31 49 12 18 25 25 50 25 18 0
36 5 40 11 20 32 105 62 118 41z m846 -37 c25 -30 4 -44 -66 -47 -82 -4 -96
-18 -124 -128 l-19 -75 23 -25 c47 -50 76 -145 76 -250 0 -57 12 -70 65 -70
52 0 84 -22 70 -46 -10 -15 -37 -17 -265 -18 l-255 -1 -3 22 c-4 27 29 43 88
43 43 0 39 -7 80 149 12 46 24 90 27 97 2 7 -8 18 -24 26 -40 19 -37 50 7 62
19 5 36 10 38 11 8 6 52 179 49 190 -4 8 -28 10 -84 7 -63 -3 -81 -1 -92 11
-15 19 -7 35 23 47 11 5 100 9 197 9 145 1 179 -2 189 -14z m-1006 -741 c3 -9
6 -38 6 -66 0 -70 23 -59 30 15 6 61 12 72 35 64 11 -5 15 -21 15 -57 0 -35 4
-50 13 -50 19 0 42 29 54 65 6 20 16 30 29 30 16 0 19 -7 18 -38 -1 -29 -10
-47 -33 -71 l-32 -33 25 -17 c35 -22 111 -21 142 3 l23 18 -30 34 c-35 38 -49
68 -42 87 10 24 41 12 63 -25 12 -21 31 -43 41 -51 22 -15 25 -40 6 -48 -9 -3
-14 -26 -15 -70 -1 -75 -19 -111 -63 -127 -33 -13 -38 -33 -11 -42 11 -3 24
-17 31 -31 10 -22 8 -32 -9 -61 -38 -64 -19 -116 72 -194 42 -36 45 -59 7 -59
-30 0 -106 76 -135 136 -26 53 -26 55 -10 97 9 23 16 48 16 55 0 20 -68 15
-79 -6 -9 -17 -28 -138 -33 -212 -4 -47 -29 -46 -45 1 -8 26 -9 58 -2 114 11
91 26 124 71 159 l33 25 -32 30 c-35 32 -49 79 -40 141 4 33 2 40 -16 46 -13
4 -25 1 -32 -9 -6 -9 -24 -21 -38 -26 l-27 -11 0 -259 c0 -268 -4 -293 -40
-271 -12 7 -16 42 -18 170 l-3 160 -29 15 c-43 22 -50 43 -50 154 0 112 11
154 38 149 15 -3 17 -17 18 -113 2 -139 2 -137 16 -133 10 4 12 42 9 156 -1
83 0 156 4 161 10 17 42 13 49 -5z m660 -25 c56 -66 59 -81 47 -203 -14 -132
-63 -340 -98 -413 -17 -38 -32 -55 -49 -59 -45 -11 -49 8 -19 83 58 145 83
237 100 361 15 113 10 142 -32 200 -45 60 3 89 51 31z m292 17 c3 -7 -10 -35
-28 -60 -30 -43 -32 -52 -30 -116 2 -86 30 -215 72 -335 53 -152 55 -164 43
-176 -29 -29 -60 19 -112 170 -46 134 -78 348 -61 410 21 81 99 152 116 107z"/>
<path d="M894 1656 c-15 -40 16 -86 50 -73 11 4 16 19 16 47 0 38 -2 40 -30
40 -17 0 -33 -6 -36 -14z"/>
<path d="M745 1470 c4 -6 11 -8 16 -5 14 9 11 15 -7 15 -8 0 -12 -5 -9 -10z"/>
<path d="M725 1340 c3 -5 13 -10 21 -10 8 0 14 5 14 10 0 6 -9 10 -21 10 -11
0 -17 -4 -14 -10z"/>
<path d="M1402 1408 c-11 -14 -52 -194 -52 -228 0 -19 5 -21 63 -18 l62 3 3
39 c4 52 -15 165 -34 194 -16 25 -27 28 -42 10z"/>
<path d="M824 768 c-8 -13 30 -48 53 -48 26 0 53 20 53 40 0 17 -7 20 -49 20
-28 0 -53 -5 -57 -12z"/>
</g>
</svg>
